<svg width="24" height="24" viewBox="0 0 24 24" fill="none" xmlns="http://www.w3.org/2000/svg">
<g clip-path="url(#clip0_41_1321)">
<path d="M22.2192 11.784L11.7843 22.219C11.3773 22.626 11.3773 23.287 11.7843 23.695C12.1912 24.102 12.8523 24.102 13.2603 23.695L23.6952 13.26C24.1022 12.852 24.1022 12.191 23.6952 11.784C23.2873 11.377 22.6262 11.377 22.2192 11.784ZM20.1322 0.305006L0.30525 20.132C-0.10175 20.539 -0.10175 21.2 0.30525 21.608C0.71325 22.015 1.37425 22.015 1.78125 21.608L21.6082 1.78101C22.0152 1.37401 22.0152 0.713006 21.6082 0.305006C21.2002 -0.101994 20.5392 -0.101994 20.1322 0.305006Z" fill="black"/>
</g>
<defs>
<clipPath id="clip0_41_1321">
<rect width="24" height="24" fill="white"/>
</clipPath>
</defs>
</svg>
