<svg width="24" height="24" viewBox="0 0 24 24" fill="none" xmlns="http://www.w3.org/2000/svg">
<path d="M14.7519 14.5554L14.3011 15.3382C14.1653 15.574 13.9139 15.7193 13.6418 15.7193H10.1887C9.91658 15.7193 9.6652 15.574 9.5294 15.3382L9.0786 14.5554H14.7519ZM16.0138 12.3642L15.219 13.7443H8.61148L7.8167 12.3642H16.0138ZM15.2482 10.2215L16.0151 11.5532H7.81543L8.5823 10.2215H15.2482ZM13.6418 8.19592C13.9139 8.19592 14.1653 8.34125 14.3011 8.57702L14.7811 9.4104H9.04943L9.5294 8.57702C9.6652 8.34125 9.91658 8.19592 10.1887 8.19592H13.6418Z" fill="#00435B"/>
<path d="M5.16322 7.83283C4.7807 5.97798 4.69862 4.55533 4.94587 3.5223C5.09292 2.9079 5.36177 2.40669 5.7706 2.04507C6.2022 1.6633 6.74787 1.47596 7.361 1.47596C8.3725 1.47596 9.4358 1.93721 10.5722 2.81345C11.0357 3.17088 11.5167 3.60168 12.0163 4.1061C12.0561 4.0549 12.101 4.00663 12.1511 3.962C13.5635 2.70333 14.7526 1.92131 15.7697 1.61979C16.3745 1.4405 16.9422 1.42342 17.4593 1.59742C18.0051 1.7811 18.4399 2.16077 18.7468 2.69258C19.2531 3.57025 19.3866 4.72353 19.1979 6.1475C19.1209 6.72793 18.9894 7.3602 18.8035 8.04525C18.8736 8.05373 18.9439 8.06928 19.0135 8.09233C20.8056 8.68618 22.0745 9.3248 22.8428 10.0547C23.2999 10.4889 23.5983 10.9723 23.7062 11.5074C23.8201 12.0723 23.7091 12.6388 23.4027 13.1702C22.8972 14.0466 21.9679 14.7378 20.644 15.2853C20.1124 15.5051 19.5109 15.7042 18.8389 15.8833C18.8696 15.9525 18.8934 16.0261 18.9093 16.1032C19.2918 17.958 19.3739 19.3807 19.1266 20.4137C18.9796 21.0281 18.7107 21.5293 18.3019 21.8909C17.8703 22.2727 17.3246 22.4601 16.7115 22.4601C15.7 22.4601 14.6367 21.9988 13.5003 21.1225C13.0319 20.7613 12.5455 20.3252 12.0402 19.8138C11.9882 19.8951 11.9244 19.9707 11.8489 20.038C10.4365 21.2966 9.24737 22.0787 8.2303 22.3802C7.62555 22.5595 7.05775 22.5765 6.5407 22.4025C5.99492 22.2189 5.56005 21.8392 5.25322 21.3074C4.74687 20.4297 4.61335 19.2765 4.80212 17.8525C4.88185 17.2511 5.0202 16.594 5.21685 15.8802C5.14 15.8724 5.0628 15.8562 4.98647 15.8309C3.19442 15.237 1.92548 14.5984 1.15722 13.8686C0.700127 13.4344 0.40164 12.9509 0.29374 12.4158C0.179849 11.851 0.2909 11.2844 0.59736 10.753C1.10278 9.87663 2.03209 9.1854 3.356 8.63793C3.90345 8.41153 4.52497 8.20715 5.22135 8.02398C5.19655 7.96323 5.17695 7.89938 5.16322 7.83283Z" fill="#002B3B"/>
<path d="M17.6586 16.2854C17.8368 16.2539 18.0075 16.3681 18.0473 16.5434L18.0495 16.5537L18.0685 16.6524C18.6844 19.8906 18.2505 21.5098 16.7668 21.5098C15.3151 21.5098 13.4672 20.1282 11.223 17.3649C11.1734 17.3039 11.1466 17.2275 11.1473 17.1488C11.1489 16.9656 11.2959 16.8177 11.4779 16.8137L11.4884 16.8137L11.6066 16.8145C12.551 16.8196 13.469 16.7867 14.3608 16.7157C15.4135 16.6319 16.5128 16.4885 17.6586 16.2854ZM7.46901 13.8376L7.47468 13.8472L7.53398 13.9507C8.00921 14.7769 8.50433 15.561 9.01933 16.3032C9.62586 17.1771 10.3079 18.0619 11.0655 18.9574C11.1827 19.096 11.1693 19.3016 11.0371 19.4239L11.0285 19.4316L10.9523 19.4972C8.44566 21.645 6.81648 22.0737 6.06468 20.7835C5.32881 19.5206 5.59561 17.2242 6.86508 13.8944C6.89298 13.8212 6.94541 13.76 7.01341 13.7212C7.17236 13.6305 7.37388 13.6828 7.46901 13.8376ZM18.9305 9.05925L18.9408 9.0626L19.0352 9.09517C22.1291 10.1714 23.3046 11.3542 22.5616 12.6435C21.8349 13.9045 19.7223 14.8226 16.2239 15.3978C16.1458 15.4106 16.0658 15.3957 15.9976 15.3556C15.8367 15.261 15.7829 15.0538 15.8775 14.8928C16.3786 14.0404 16.8299 13.1923 17.2314 12.3485C17.6868 11.3915 18.1141 10.3643 18.5134 9.26685C18.5739 9.10045 18.7518 9.01007 18.9202 9.05625L18.9305 9.05925ZM8.00148 8.51737C8.16246 8.612 8.21626 8.81922 8.12161 8.98022C7.62053 9.83257 7.16923 10.6807 6.76773 11.5245C6.31236 12.4815 5.88503 13.5087 5.48573 14.6062C5.42396 14.776 5.24003 14.8666 5.06858 14.8138L5.05831 14.8104L4.96396 14.7778C1.86997 13.7016 0.694486 12.5188 1.4375 11.2295C2.16419 9.96852 4.27678 9.05042 7.77526 8.4752C7.85328 8.46237 7.93331 8.4773 8.00148 8.51737ZM17.9344 3.21632C18.6703 4.47925 18.4035 6.77562 17.134 10.1054C17.1061 10.1786 17.0537 10.2398 16.9857 10.2786C16.8268 10.3693 16.6252 10.317 16.5301 10.1622L16.5244 10.1526L16.4651 10.0491C15.9899 9.22292 15.4948 8.43877 14.9798 7.69665C14.3733 6.8227 13.6912 5.93792 12.9336 5.0424C12.8164 4.90385 12.8298 4.69822 12.962 4.57592L12.9706 4.56822L13.0468 4.50262C15.5534 2.35486 17.1826 1.9261 17.9344 3.21632ZM7.35911 2.44775C8.81078 2.44775 10.6587 3.82937 12.903 6.5926C12.9526 6.65365 12.9793 6.73007 12.9786 6.80872C12.977 6.99195 12.83 7.13985 12.6481 7.14382L12.6375 7.1439L12.5194 7.14305C11.575 7.13792 10.6569 7.17085 9.76511 7.24182C8.71241 7.32562 7.61316 7.46905 6.46736 7.6721C6.28916 7.70367 6.11841 7.58945 6.07863 7.4142L6.07646 7.4038L6.05746 7.30517C5.44151 4.0669 5.87541 2.44775 7.35911 2.44775Z" fill="#FF4154"/>
<path d="M10.4664 8.2384H13.365C13.7889 8.2384 14.1804 8.46513 14.3914 8.83278L15.8468 11.3688C16.0562 11.7336 16.0562 12.1821 15.8468 12.5469L14.3914 15.0829C14.1804 15.4505 13.7889 15.6773 13.365 15.6773H10.4664C10.0425 15.6773 9.65098 15.4505 9.43998 15.0829L7.98456 12.5469C7.77521 12.1821 7.77521 11.7336 7.98456 11.3688L9.43998 8.83278C9.65098 8.46513 10.0425 8.2384 10.4664 8.2384ZM12.9232 9.00383C13.3473 9.00383 13.739 9.23078 13.9499 9.59875L14.9648 11.3693C15.1738 11.7338 15.1738 12.1818 14.9648 12.5464L13.9499 14.3169C13.739 14.6849 13.3473 14.9119 12.9232 14.9119H10.9082C10.484 14.9119 10.0924 14.6849 9.88143 14.3169L8.86653 12.5464C8.65758 12.1818 8.65758 11.7338 8.86653 11.3693L9.88143 9.59875C10.0924 9.23078 10.484 9.00383 10.9082 9.00383H12.9232ZM12.447 9.84098H11.3843C10.9606 9.84098 10.5693 10.0675 10.3582 10.4349L9.82188 11.3683C9.61213 11.7333 9.61213 12.1824 9.82188 12.5474L10.3582 13.4808C10.5693 13.8482 10.9606 14.0747 11.3843 14.0747H12.447C12.8707 14.0747 13.2621 13.8482 13.4732 13.4808L14.0095 12.5474C14.2192 12.1824 14.2192 11.7333 14.0095 11.3683L13.4732 10.4349C13.2621 10.0675 12.8707 9.84098 12.447 9.84098ZM11.9886 10.6423C12.4119 10.6423 12.8031 10.8685 13.0142 11.2354L13.0903 11.3675C13.3006 11.7329 13.3006 12.1827 13.0903 12.5482L13.0142 12.6803C12.8031 13.0472 12.4119 13.2734 11.9886 13.2734H11.8428C11.4194 13.2734 11.0283 13.0472 10.8171 12.6803L10.7411 12.5482C10.5307 12.1827 10.5307 11.7329 10.7411 11.3675L10.8171 11.2354C11.0283 10.8685 11.4194 10.6423 11.8428 10.6423H11.9886ZM11.9159 11.4316C11.7274 11.4316 11.5537 11.5319 11.4596 11.6947C11.3655 11.8575 11.3655 12.0582 11.4596 12.221C11.5537 12.3838 11.7274 12.4841 11.9155 12.4841C12.1039 12.4841 12.2777 12.3838 12.3718 12.221C12.4659 12.0582 12.4659 11.8575 12.3718 11.6947C12.2777 11.5319 12.1039 11.4316 11.9159 11.4316Z" fill="#FFD94C"/>
</svg>
