<svg width="48" height="48" viewBox="0 0 48 48" fill="none" xmlns="http://www.w3.org/2000/svg">
<rect x="0.5" y="0.5" width="47" height="47" rx="7.5" stroke="#68C2F3"/>
<path d="M24.6407 39.954C24.4684 39.9303 24.0941 39.8684 23.8182 39.8113C23.4292 39.7305 23.311 39.6924 23.311 39.6306C23.311 39.5688 23.3011 39.5688 23.2666 39.6211C23.2322 39.6734 23.0696 39.6354 22.4195 39.4166C21.3656 39.0694 20.8878 38.8934 20.8977 38.8458C20.9026 38.8268 20.8878 38.7935 20.8681 38.7792C20.8484 38.7602 20.8484 38.7745 20.8681 38.8078C20.9223 38.8934 20.873 38.8839 20.2525 38.646C19.8683 38.4986 19.6565 38.3892 19.6221 38.3226C19.5827 38.2513 19.5728 38.2465 19.5925 38.3083C19.6073 38.3559 19.5974 38.3892 19.5728 38.3797C18.9769 38.1561 18.6814 38.0182 18.6764 37.9611C18.6764 37.9183 18.6617 37.9136 18.6518 37.9468C18.637 37.9801 18.4647 37.9373 18.1396 37.8089C17.8687 37.7043 17.657 37.5996 17.6717 37.5806C17.6865 37.5616 17.6619 37.5283 17.6176 37.514C17.5683 37.495 17.5535 37.5045 17.5782 37.5426C17.6028 37.5806 17.588 37.5854 17.5289 37.5663C17.4797 37.5473 17.4255 37.533 17.4107 37.533C17.391 37.533 17.4107 37.5093 17.4501 37.4807C17.5092 37.4427 17.5043 37.4379 17.4255 37.4569C17.3614 37.476 17.1103 37.4046 16.8098 37.2905C16.1696 37.0479 15.0861 36.6912 14.8595 36.6484C14.7708 36.6341 14.692 36.6008 14.692 36.5818C14.692 36.5627 14.6329 36.558 14.564 36.5723C14.4901 36.5865 14.4458 36.577 14.4606 36.5532C14.4753 36.5294 14.4064 36.5104 14.3079 36.5057C13.8055 36.5009 13.3327 36.4581 13.3032 36.4153C13.2785 36.3868 13.2638 36.3915 13.2638 36.4296C13.2638 36.4676 13.1899 36.4866 13.0471 36.4866C12.5644 36.4866 11.6286 36.7815 10.7027 37.2191C10.4171 37.3571 10.1363 37.4617 10.0822 37.4569C10.0132 37.4522 9.97873 37.476 9.98366 37.5283C9.98366 37.5711 9.95903 37.5996 9.92456 37.5901C9.89501 37.5854 9.86546 37.5996 9.86546 37.6234C9.86546 37.6995 9.33355 37.9611 9.23997 37.9326C9.16609 37.9088 9.16609 37.9136 9.22519 37.9564C9.33847 38.0325 8.87551 38.218 8.60463 38.2037C8.47165 38.1989 8.23032 37.9659 8.25987 37.8803C8.27465 37.8422 8.26973 37.8232 8.2451 37.8375C8.17615 37.8803 8.09735 37.6139 8.03825 37.1335C7.93974 36.363 8.04317 33.7279 8.21555 32.6863C8.29928 32.2011 8.4815 31.7017 8.57508 31.716C8.60463 31.7255 8.61941 31.7017 8.60463 31.6637C8.56031 31.5495 9.24489 30.7552 9.33847 30.8123C9.36802 30.8266 9.37295 30.8218 9.35817 30.7933C9.31384 30.7267 9.80143 30.3366 9.87531 30.3795C9.90486 30.3985 9.91471 30.3937 9.89993 30.3652C9.85068 30.2891 10.0329 30.1559 10.1413 30.1892C10.2102 30.2082 10.2151 30.2035 10.1708 30.1702C10.1216 30.1369 10.1856 30.0703 10.4318 29.9038C10.6091 29.7849 10.7864 29.6993 10.816 29.7136C10.8505 29.7326 10.8603 29.7278 10.8357 29.7088C10.7815 29.647 11.2248 29.3949 11.3282 29.4282C11.3922 29.4472 11.3972 29.4424 11.3528 29.4139C11.274 29.3568 12.1507 28.905 12.2591 28.943C12.2985 28.9573 12.3231 28.9525 12.3083 28.9288C12.2492 28.8384 13.5297 28.4103 14.3374 28.2534C15.1304 28.0964 17.4698 28.0631 17.3762 28.2105C17.3614 28.2296 17.3959 28.2391 17.4452 28.2248C17.5732 28.1915 18.5878 28.4008 18.5533 28.4531C18.5385 28.4769 18.5632 28.4817 18.6026 28.4674C18.7208 28.4246 20.3707 28.9097 20.3264 28.9763C20.3165 28.9953 20.3313 29.0286 20.3608 29.0477C20.4002 29.0667 20.4052 29.0619 20.3855 29.0286C20.3658 28.9953 20.3805 28.9716 20.4249 28.9716C20.4692 28.9716 20.5037 28.9953 20.5037 29.0239C20.5037 29.0477 20.5234 29.0619 20.548 29.0477C20.6268 28.9953 21.0454 29.1666 21.0454 29.2474C21.0454 29.3093 21.0553 29.314 21.0848 29.2665C21.1341 29.1951 21.4247 29.2807 21.5281 29.3949C21.5724 29.4424 21.5823 29.4472 21.5576 29.4044C21.533 29.3568 21.5429 29.3426 21.597 29.3663C21.6414 29.3806 21.7694 29.4187 21.8778 29.452C22.0255 29.4948 22.0649 29.5233 22.0206 29.5566C21.9763 29.5851 21.9861 29.5899 22.0501 29.5709C22.1831 29.5281 22.6806 29.6898 22.6215 29.7564C22.5919 29.7897 22.6067 29.8087 22.6707 29.8087C22.72 29.8087 22.7495 29.7897 22.7397 29.7706C22.7052 29.7136 22.6855 29.7088 23.6114 29.9894C24.0842 30.1321 24.6063 30.2843 24.7786 30.3271C24.9904 30.3842 25.084 30.4365 25.084 30.4889C25.084 30.5459 25.0938 30.5507 25.1283 30.5031C25.1726 30.4318 25.4288 30.4746 25.4288 30.5507C25.4288 30.5792 25.4632 30.5887 25.5026 30.5745C25.542 30.5554 25.6898 30.5745 25.8326 30.6125C25.9754 30.6506 26.2118 30.7076 26.3547 30.7362C26.4926 30.7695 26.6108 30.8075 26.6108 30.8218C26.6108 30.8361 26.6896 30.8503 26.7881 30.8551C26.8866 30.8551 26.9802 30.8836 27.0048 30.9217C27.0245 30.955 27.0639 30.9692 27.0934 30.9502C27.1525 30.9169 28.2361 31.1167 28.2114 31.1595C28.2016 31.1785 28.2607 31.1785 28.3444 31.169C28.4281 31.1547 28.4823 31.1643 28.4675 31.188C28.4528 31.2118 28.5217 31.2308 28.6202 31.2308C28.7236 31.2356 28.8468 31.2546 28.9009 31.2737C28.9551 31.2974 29.0487 31.3212 29.1078 31.3307C29.3935 31.364 29.817 31.7065 29.7333 31.8349C29.7136 31.8634 29.7185 31.873 29.7481 31.8587C29.7825 31.8397 29.8022 31.9443 29.8022 32.1583C29.8072 32.3914 29.7924 32.4818 29.753 32.4627C29.7234 32.4437 29.7136 32.4485 29.7333 32.4818C29.7776 32.5484 29.6742 32.7909 29.6151 32.7529C29.5905 32.7386 29.5757 32.7529 29.5905 32.7862C29.6249 32.8766 29.226 33.3094 29.1373 33.2808C29.0979 33.2666 29.0832 33.2761 29.0979 33.2999C29.1127 33.3284 29.0782 33.3474 29.0142 33.3474C28.9354 33.3474 28.9206 33.3617 28.965 33.3902C29.0388 33.433 28.502 33.7184 28.1129 33.8373C27.5219 34.0228 26.3103 34.0799 25.4534 33.9658C25.2367 33.9372 24.9559 33.8992 24.8279 33.8849C24.6998 33.8706 24.6013 33.8421 24.6161 33.8231C24.626 33.8088 24.5669 33.804 24.4831 33.8136C24.3994 33.8278 24.3452 33.8183 24.36 33.7945C24.3748 33.7708 24.3058 33.7517 24.2073 33.7517C23.9069 33.747 22.1634 33.3379 22.2373 33.2904C22.2767 33.2618 22.2619 33.2571 22.188 33.2761C22.124 33.2951 21.8039 33.2523 21.4739 33.1857C20.1835 32.9241 19.3167 32.8956 19.5088 33.1239C19.5433 33.1572 19.558 33.2047 19.5433 33.219C19.5285 33.238 19.5334 33.2428 19.5482 33.2285C19.5679 33.219 19.6516 33.238 19.7353 33.2713C19.8191 33.3046 20.085 33.3807 20.3214 33.4426C20.6219 33.5187 20.7351 33.5662 20.6908 33.5948C20.6465 33.6281 20.6711 33.6328 20.7548 33.6138C20.8287 33.5995 21.0553 33.6376 21.272 33.6994C21.4887 33.7612 21.7793 33.8373 21.9172 33.8706C22.06 33.8992 22.1683 33.9467 22.1536 33.9658C22.1388 33.9895 22.1683 33.9943 22.2127 33.9848C22.2619 33.9705 22.4934 34.0181 22.7347 34.0847C22.9711 34.1513 23.1878 34.2036 23.2223 34.2036C23.2519 34.2036 23.306 34.2416 23.3454 34.2892C23.3848 34.332 23.4045 34.3415 23.3848 34.313C23.3454 34.2321 23.3405 34.2321 24.099 34.3938C24.4634 34.4747 24.8919 34.5556 25.0446 34.5698C25.2022 34.5841 25.3204 34.6126 25.3106 34.6269C25.2859 34.6602 25.4435 34.6697 26.463 34.684C27.0885 34.6887 27.32 34.6745 27.7337 34.5888C28.0144 34.5318 28.2656 34.4985 28.2952 34.5175C28.3247 34.5365 28.3346 34.5318 28.3198 34.5032C28.2804 34.4414 28.7483 34.2939 28.8665 34.3272C28.9256 34.3463 28.9305 34.3415 28.8911 34.313C28.8468 34.2844 28.9059 34.2321 29.093 34.1465C29.2359 34.0799 29.487 33.9134 29.6496 33.7803C29.817 33.6518 29.9648 33.5567 29.9845 33.5757C30.0042 33.5948 30.0091 33.5853 29.9992 33.5615C29.9845 33.5091 30.2849 33.062 30.3735 33.005C30.4031 32.9859 30.4129 32.9669 30.3932 32.9669C30.3735 32.9669 30.3932 32.8765 30.4326 32.7672C30.472 32.653 30.5508 32.3819 30.605 32.1631C30.6592 31.9395 30.7479 31.6922 30.802 31.6066C30.9153 31.4306 31.7132 30.8551 31.787 30.9027C31.8117 30.9169 31.8265 30.9027 31.8215 30.8646C31.8117 30.8313 31.8462 30.8075 31.8905 30.8075C31.9397 30.8123 31.9693 30.798 31.9545 30.779C31.9151 30.7219 32.5603 30.2938 32.6292 30.3319C32.6588 30.3509 32.6686 30.3462 32.6539 30.3176C32.6145 30.2605 32.7376 30.1464 32.7819 30.194C32.8016 30.2082 32.8164 30.2035 32.8164 30.1749C32.8164 30.1179 33.3089 29.7992 33.368 29.8182C33.3926 29.823 33.4025 29.8087 33.3976 29.7849C33.3877 29.7611 33.5207 29.647 33.6931 29.5233C34.0033 29.2998 34.0821 29.2617 34.0181 29.3616C33.9984 29.3949 34.0033 29.3996 34.0427 29.3806C34.0723 29.3616 34.0871 29.3283 34.0723 29.3045C34.0329 29.2474 34.9194 28.6243 34.9884 28.6672C35.0228 28.6862 35.0327 28.6814 35.013 28.6481C34.9736 28.5863 36.4462 27.5161 36.5447 27.5351C36.5841 27.5447 36.6038 27.5304 36.589 27.5018C36.5545 27.4495 37.2785 26.9406 37.3524 26.9596C37.377 26.9691 37.3967 26.9549 37.3967 26.9311C37.3967 26.855 38.037 26.5839 38.1404 26.6076C38.1897 26.6219 38.2241 26.6124 38.2094 26.5934C38.17 26.5315 38.6034 26.484 38.9087 26.5125C39.2141 26.5458 39.6426 26.7266 39.6229 26.8217C39.6179 26.8597 39.6278 26.874 39.6524 26.8597C39.7115 26.8264 39.8888 27.0119 39.9529 27.1737C40.0317 27.3734 40.007 27.9204 39.9135 28.1677C39.8642 28.2866 39.746 28.5007 39.6475 28.6434C39.4062 28.9906 38.8792 29.5471 38.8201 29.5138C38.7955 29.4995 38.7807 29.509 38.7856 29.5328C38.8102 29.6089 38.0813 30.3557 38.0271 30.3176C37.9976 30.3033 37.9877 30.3129 38.0025 30.3366C38.0419 30.3985 37.9188 30.5079 37.8646 30.4556C37.84 30.4365 37.84 30.446 37.8548 30.4746C37.8942 30.5412 37.6775 30.7457 37.6184 30.6981C37.5987 30.6743 37.5937 30.6839 37.6085 30.7124C37.6479 30.779 37.3327 31.0786 37.2736 31.0311C37.2539 31.0073 37.249 31.0168 37.2638 31.0453C37.3032 31.1119 36.9879 31.4116 36.9288 31.364C36.9091 31.3402 36.9042 31.3498 36.919 31.3783C36.9535 31.4306 36.5398 31.8825 36.4905 31.8444C36.4757 31.8349 36.4708 31.8397 36.4856 31.8587C36.5201 31.9015 36.1655 32.2487 36.0965 32.2344C36.067 32.2249 36.062 32.2297 36.0867 32.244C36.1064 32.2535 35.9438 32.4437 35.7173 32.6625C35.4956 32.8813 35.2888 33.043 35.2642 33.0288C35.2346 33.0145 35.2297 33.0192 35.2445 33.0478C35.2789 33.1001 34.9687 33.4093 34.9194 33.3712C34.8997 33.3569 34.8948 33.3617 34.9096 33.3807C34.949 33.433 34.5303 33.8231 34.4712 33.7898C34.4417 33.7755 34.4318 33.7803 34.4564 33.7993C34.5057 33.8516 34.2447 34.1132 34.1806 34.0752C34.1511 34.0609 34.1462 34.0656 34.1609 34.0942C34.1905 34.137 33.6684 34.6745 33.5946 34.6792C33.5699 34.6792 33.5552 34.6935 33.5552 34.7173C33.5552 34.7363 33.3483 34.9503 33.102 35.1882C32.777 35.5021 32.6342 35.6115 32.6046 35.5687C32.5751 35.5306 32.5701 35.5354 32.5849 35.5877C32.6145 35.6828 32.2746 36.0253 32.1761 36.0015C32.1367 35.992 32.1072 36.0205 32.1023 36.0586C32.1023 36.1252 31.8412 36.3772 31.2256 36.9052C31.0975 37.0194 30.9695 37.0955 30.935 37.0764C30.9005 37.0574 30.8956 37.0622 30.9153 37.0955C30.9498 37.1525 30.6001 37.4474 29.6348 38.1561C29.2802 38.4177 28.9551 38.627 28.9206 38.6175C28.8812 38.608 28.8566 38.627 28.8615 38.6603C28.8763 38.7221 28.0982 39.212 27.6007 39.4594C27.0984 39.702 26.532 39.8732 26.3497 39.8446C26.2315 39.8256 26.2168 39.8256 26.2906 39.8589C26.3694 39.8922 26.3448 39.9065 26.1527 39.935C26.0247 39.954 25.8671 39.9588 25.7981 39.9493C25.7292 39.935 25.675 39.9445 25.675 39.9636C25.675 40.0159 25.0791 40.0111 24.6407 39.954Z" fill="#8BD4F4"/>
<path d="M8.8891 30.4365C8.91865 30.3367 8.96297 30.2558 8.9876 30.2558C9.01223 30.2558 9.01715 30.232 9.00238 30.2082C8.95805 30.1369 9.027 29.9657 9.0861 29.999C9.12058 30.018 9.1255 30.0085 9.1058 29.9752C9.05163 29.8991 9.66726 28.2534 9.73129 28.2914C9.75592 28.3057 9.76577 28.2962 9.75099 28.2724C9.70174 28.1963 10.1105 27.1118 10.1745 27.1499C10.2041 27.1642 10.209 27.1546 10.1893 27.1213C10.1499 27.0643 10.2435 26.7361 10.3026 26.7361C10.3223 26.7361 10.3371 26.698 10.3371 26.6552C10.342 26.5078 10.8641 25.214 10.9035 25.2426C10.9281 25.2568 10.933 25.2378 10.9232 25.1998C10.9084 25.1665 11.0315 24.786 11.194 24.3531C11.3615 23.9251 11.5881 23.3353 11.7013 23.0404C11.8146 22.7502 11.923 22.5219 11.9525 22.5362C11.9771 22.5552 11.9821 22.541 11.9624 22.5077C11.923 22.4506 12.2628 21.5041 12.3219 21.5041C12.3367 21.5041 12.3564 21.4565 12.3564 21.3947C12.3613 21.3376 12.4056 21.2044 12.4499 21.0998C12.4992 20.9951 12.5435 20.8857 12.5534 20.8524C12.5583 20.8191 12.6125 20.6669 12.6765 20.51L12.7898 20.2294L12.9917 20.3958C13.1001 20.4862 13.1887 20.5861 13.1887 20.6146C13.1936 20.6479 13.2183 20.6669 13.2527 20.6622C13.2823 20.6527 13.4153 20.743 13.5433 20.8572C13.6714 20.9761 13.8536 21.1283 13.9422 21.1949C14.026 21.2662 14.0851 21.3471 14.0654 21.3709C14.0506 21.4042 14.0604 21.4089 14.09 21.3899C14.1245 21.3709 14.1491 21.3804 14.1491 21.4089C14.1491 21.4375 14.1688 21.4517 14.1885 21.4375C14.2131 21.4232 14.2772 21.4613 14.3313 21.5183C14.3855 21.5754 14.5431 21.7086 14.681 21.8085C14.8189 21.9131 14.9223 22.013 14.9125 22.0273C14.9026 22.0463 14.9174 22.0606 14.9519 22.0606C15.0307 22.0606 15.6759 22.5077 15.6759 22.56C15.6759 22.5838 15.6956 22.5933 15.7153 22.579C15.7695 22.5457 16.2767 22.8596 16.2324 22.9024C16.2127 22.9215 16.2373 22.9215 16.2866 22.9024C16.3555 22.8787 16.3703 22.8834 16.3457 22.9215C16.3211 22.9595 16.3457 22.9785 16.4048 22.9785C16.5279 22.9785 17.2125 23.283 17.178 23.321C17.1583 23.3353 17.1977 23.3495 17.2618 23.3448C17.3258 23.3448 17.577 23.3923 17.8183 23.4494C18.2419 23.5493 18.429 23.5588 19.3549 23.5303C19.4633 23.5303 19.547 23.5113 19.5372 23.497C19.5125 23.4589 19.9115 23.34 20.0346 23.3495C20.0888 23.3543 20.1035 23.3448 20.0691 23.3305C20.0297 23.3115 20.1134 23.2401 20.2808 23.145C20.4286 23.0546 20.6354 22.9215 20.734 22.8406C20.8325 22.7645 20.9359 22.7122 20.9654 22.7265C20.995 22.7407 21.0048 22.7407 20.9851 22.7169C20.9654 22.6979 21.0344 22.579 21.1378 22.4601C21.9307 21.5326 22.3494 20.3483 22.5218 18.5789C22.6744 16.9665 22.4676 14.7833 22.044 13.6418C21.9751 13.4515 21.916 13.2613 21.916 13.2185C21.911 13.1756 21.8913 13.1519 21.8716 13.1614C21.8519 13.1756 21.8125 13.1424 21.783 13.09C21.6599 12.8665 21.3939 12.8617 21.2905 13.0758C21.2117 13.2327 21.1871 13.3326 21.2363 13.3041C21.2757 13.2803 21.6993 14.8737 21.7781 15.3446C22.0637 17.0236 21.9997 18.8785 21.6057 20.2198C21.4481 20.743 21.389 20.8905 21.3348 20.8572C21.3102 20.8429 21.3053 20.862 21.32 20.9C21.3594 20.9999 21.0048 21.661 20.9359 21.6182C20.9014 21.5992 20.8965 21.604 20.9162 21.642C20.9408 21.6753 20.8669 21.8037 20.7438 21.9607C20.5172 22.2413 20.3646 22.3697 20.2956 22.3317C20.271 22.3174 20.2611 22.3317 20.2661 22.365C20.2858 22.4411 19.9607 22.6551 19.877 22.6266C19.8425 22.6123 19.8179 22.6266 19.8277 22.6599C19.8327 22.6932 19.7883 22.7169 19.7292 22.7122C19.6701 22.7122 19.6307 22.7265 19.6406 22.7455C19.6849 22.8073 19.2269 22.8834 18.7885 22.8834C18.2911 22.8834 17.7789 22.8026 17.8281 22.7265C17.8429 22.6979 17.8331 22.6932 17.8035 22.7122C17.7247 22.7598 17.4932 22.6932 17.5326 22.6313C17.5523 22.6028 17.5376 22.598 17.5031 22.6218C17.4243 22.6646 16.9958 22.5124 17.0303 22.4506C17.05 22.4268 17.0204 22.422 16.9761 22.4411C16.917 22.4601 16.9022 22.4553 16.9269 22.4173C16.9515 22.3792 16.9318 22.3697 16.8776 22.3935C16.8185 22.4125 16.8037 22.4078 16.8284 22.3697C16.8481 22.3364 16.8382 22.3222 16.7988 22.3364C16.7151 22.3697 16.1881 22.0939 16.2078 22.0273C16.2127 21.9987 16.1979 21.9845 16.1684 22.0035C16.0403 22.0796 14.2919 20.862 14.3363 20.7288C14.3412 20.705 14.3264 20.7002 14.3018 20.7145C14.1885 20.7811 11.7851 18.5313 11.3763 17.9796C11.2236 17.7751 11.1202 17.561 11.066 17.366C10.9921 17.0854 10.9921 17.0426 11.0709 16.7667C11.1645 16.4385 11.2679 16.2768 12.2185 15.0259C12.5878 14.5407 12.8587 14.2268 12.908 14.2268C12.9622 14.2268 12.972 14.2125 12.9326 14.1888C12.8636 14.1459 13.7699 12.9569 13.8585 12.9806C13.8881 12.9854 13.8979 12.9711 13.8782 12.9426C13.8388 12.8808 14.5382 11.9818 14.6564 11.9533C14.7007 11.9437 14.7401 11.9105 14.7401 11.8867C14.7401 11.8629 14.7155 11.8581 14.681 11.8772C14.5874 11.9342 15.4198 10.9021 15.7744 10.5216C16.193 10.0745 16.7545 9.60361 16.8185 9.64166C16.853 9.66069 16.8579 9.65117 16.8382 9.62263C16.8185 9.5941 16.9269 9.48946 17.1042 9.3753C17.2667 9.27066 17.3997 9.19456 17.3997 9.20883C17.3997 9.2231 17.4391 9.19456 17.4883 9.147C17.6114 9.02809 18.5177 8.60477 18.9708 8.45257C19.4584 8.28609 20.3793 8.10535 20.8965 8.07206C21.128 8.05303 21.4432 8.02925 21.6057 8.01498C21.8175 7.9912 21.9061 8.00071 21.9357 8.04827C21.9652 8.09584 21.98 8.10059 21.98 8.05779C21.98 7.97693 22.4725 7.98168 23.4575 8.0673C24.3046 8.13864 24.8957 8.22902 24.8612 8.28609C24.8464 8.30512 24.876 8.30987 24.9203 8.30036C25.1173 8.2528 26.5948 8.7427 26.5702 8.84734C26.5653 8.88064 26.5948 8.89966 26.6441 8.89015C26.7623 8.86161 27.4124 9.17553 27.3681 9.23737C27.3533 9.26591 27.3681 9.28017 27.4075 9.27066C27.506 9.24688 27.9935 9.56556 27.9541 9.63215C27.9394 9.66068 27.9394 9.6702 27.964 9.65117C28.0182 9.59885 28.1955 9.70349 28.1561 9.76533C28.1364 9.79386 28.1413 9.80338 28.1708 9.78911C28.2398 9.7463 28.7619 10.2077 29.1509 10.65C29.3676 10.8973 29.4464 11.021 29.4317 11.0876C29.4169 11.1447 29.4317 11.1827 29.4612 11.1827C29.4957 11.1827 29.5055 11.1542 29.4908 11.1209C29.4711 11.0924 29.5055 11.1161 29.5597 11.1827C29.7075 11.354 30.1261 12.1578 30.2295 12.4669C30.2788 12.6096 30.3674 12.8284 30.4315 12.9473C30.4955 13.071 30.5349 13.1804 30.525 13.1994C30.5103 13.2137 30.5103 13.2185 30.525 13.2089C30.5398 13.1994 30.6334 13.2708 30.7368 13.3659C30.8353 13.461 30.9978 13.599 31.0914 13.6751C31.185 13.7464 31.2293 13.794 31.1899 13.7702C31.1456 13.7512 31.1308 13.7559 31.1554 13.7797C31.1801 13.8035 31.2343 13.8225 31.2786 13.8225C31.3229 13.8225 31.3623 13.8463 31.3623 13.8796C31.3623 13.9081 31.382 13.9509 31.4066 13.9747C31.4313 13.9985 31.4362 13.989 31.4165 13.9557C31.3968 13.9224 31.3919 13.8939 31.4116 13.8939C31.4707 13.8939 31.9533 14.1459 31.9878 14.1983C32.0075 14.2268 32.0272 14.2363 32.0272 14.2173C32.0272 14.1888 32.5394 14.3552 32.9383 14.5169C33.0221 14.5455 33.1304 14.5835 33.1846 14.593C33.2388 14.6026 33.5343 14.6787 33.8396 14.7595C34.2139 14.8594 34.3715 14.926 34.3321 14.9545C34.2878 14.9831 34.3026 14.9878 34.3666 14.964C34.5144 14.9165 35.4748 15.1828 35.4748 15.2732C35.4748 15.3255 35.4846 15.3303 35.5142 15.2875C35.5339 15.2542 35.5979 15.2399 35.6668 15.2589C35.7506 15.278 35.7653 15.297 35.7112 15.3303C35.6668 15.3636 35.6865 15.3683 35.7703 15.3493C35.9131 15.3208 36.6666 15.5015 36.6322 15.5586C36.6174 15.5824 36.6469 15.5871 36.6962 15.5776C36.7947 15.5491 37.5285 15.7631 37.8142 15.9011C38.2673 16.1246 38.6268 16.5527 38.5628 16.7953C38.548 16.8571 38.5579 16.8809 38.5874 16.8618C38.6268 16.8381 38.6317 16.9094 38.6071 17.0854C38.5874 17.2281 38.5529 17.347 38.5283 17.3565C38.5037 17.366 38.4938 17.3993 38.5086 17.4278C38.5382 17.504 37.9078 19.0831 37.6467 19.6015C37.4152 20.0534 37.0409 20.5813 36.9671 20.5671C36.9375 20.5623 36.9178 20.5908 36.9227 20.6384C36.9227 20.6812 36.8981 20.7145 36.8636 20.705C36.8242 20.7002 36.8095 20.7145 36.8242 20.7383C36.8636 20.7954 36.7356 20.8953 36.6814 20.8477C36.6568 20.8287 36.6568 20.8429 36.6765 20.8715C36.7159 20.9428 36.3662 21.2758 36.2923 21.233C36.2677 21.2187 36.2628 21.2282 36.2825 21.2567C36.3662 21.3899 34.8345 22.3317 34.6769 22.2365C34.6473 22.2175 34.6375 22.2223 34.6523 22.2508C34.6818 22.2984 34.5094 22.3745 34.3666 22.3792C34.342 22.384 34.3026 22.403 34.2878 22.4268C34.2681 22.4506 34.1893 22.4696 34.1056 22.4744C34.0219 22.4744 33.9677 22.4934 33.9775 22.5124C34.012 22.56 33.4801 22.6551 33.3274 22.6218C33.2191 22.6028 33.2092 22.6075 33.2831 22.6361C33.3914 22.6836 32.9137 22.7598 32.1602 22.8168C31.5347 22.8596 30.4167 22.7978 30.328 22.7074C30.2886 22.6694 30.2542 22.6551 30.2542 22.6789C30.2542 22.7027 29.7961 22.7169 29.2396 22.7122C28.6831 22.7074 28.2398 22.7122 28.2546 22.7312C28.289 22.7598 27.7227 22.9833 27.5848 22.9928C27.5404 22.9976 27.5109 23.0118 27.5257 23.0309C27.5355 23.0499 27.4567 23.1165 27.3484 23.1878C27.24 23.2544 27.0479 23.4114 26.9199 23.535C26.7918 23.6635 26.6638 23.7633 26.6342 23.7633C26.6096 23.7681 26.5899 23.7919 26.5948 23.8204C26.6047 23.8537 26.5357 23.9821 26.4471 24.1106C26.3633 24.239 26.2156 24.5149 26.122 24.7289C26.0284 24.9429 25.9299 25.0999 25.9053 25.0856C25.8757 25.0714 25.8708 25.0809 25.8905 25.1094C25.9398 25.1855 25.8708 25.4091 25.8068 25.371C25.7772 25.3567 25.7723 25.3662 25.792 25.3948C25.8413 25.4709 25.7181 25.8371 25.659 25.7991C25.6295 25.7801 25.6196 25.7991 25.6393 25.8466C25.6787 25.9465 25.462 26.7979 25.4079 26.7504C25.3832 26.7313 25.3783 26.7504 25.3931 26.7932C25.4079 26.836 25.3586 27.2212 25.2798 27.6493C25.201 28.0774 25.1025 28.7385 25.0582 29.1143C25.0089 29.4948 24.9597 29.8182 24.94 29.842C24.9203 29.861 24.4869 29.7374 23.9697 29.5614C23.4575 29.3901 22.832 29.1856 22.5809 29.1095C22.2903 29.0191 22.1376 28.9478 22.1573 28.9145C22.177 28.8812 22.1672 28.8765 22.1327 28.8955C22.1031 28.9145 21.5761 28.7671 20.9556 28.572C19.4534 28.0916 19.217 28.0203 19.1382 28.0203C19.0988 28.0203 19.0791 28.0013 19.0939 27.9775C19.1087 27.9585 19.0594 27.9394 18.9855 27.9394C18.9117 27.9442 18.5768 27.8871 18.2369 27.8158C17.375 27.6398 16.1142 27.5304 15.8581 27.6065C15.7645 27.6398 15.7005 27.635 15.6611 27.597C15.6316 27.5684 15.5823 27.5447 15.5528 27.5447C15.5281 27.5447 15.5331 27.5637 15.5675 27.5875C15.6069 27.6113 15.4739 27.6398 15.2277 27.6588C14.9223 27.6826 14.8091 27.6778 14.7746 27.6303C14.745 27.5827 14.7352 27.5875 14.7549 27.6446C14.7746 27.7064 14.7352 27.7302 14.5579 27.7539C14.4348 27.7682 14.3166 27.7682 14.2919 27.7539C14.2673 27.7397 14.2476 27.7492 14.2476 27.7682C14.2476 27.792 14.1294 27.8348 13.9816 27.8681C13.8339 27.9014 13.4497 28.0155 13.1296 28.1249C12.8095 28.2296 12.4992 28.32 12.4401 28.3247C12.3859 28.3247 12.3465 28.3437 12.3564 28.358C12.3859 28.4056 12.2283 28.4531 12.1643 28.4151C12.1298 28.4008 12.12 28.4056 12.1397 28.4246C12.1643 28.4484 11.987 28.5578 11.7457 28.6672C11.0217 29.0096 10.3026 29.4472 9.64756 29.9419C9.48996 30.0608 9.33728 30.1464 9.30773 30.1274C9.27818 30.1131 9.27326 30.1226 9.29296 30.1512C9.30773 30.1797 9.24371 30.2606 9.14028 30.3367C9.03685 30.408 8.9285 30.5031 8.89402 30.5412C8.84477 30.5983 8.84477 30.5745 8.8891 30.4365ZM28.3186 15.4825C28.619 15.2637 28.7372 15.0592 28.7717 14.7024C28.7914 14.5217 28.7865 14.3695 28.7668 14.3695C28.7471 14.3695 28.7274 14.341 28.7274 14.3077C28.7274 14.1792 28.4269 13.8558 28.225 13.7654C27.9295 13.6275 27.6931 13.5609 27.6931 13.6132C27.6931 13.637 27.634 13.656 27.5601 13.656C27.4912 13.656 27.3385 13.7084 27.2252 13.775C27.1119 13.8368 26.9987 13.8748 26.979 13.8558C26.9642 13.8368 26.9543 13.8463 26.9593 13.8701C26.979 13.9224 26.7327 14.4218 26.7032 14.3933C26.6933 14.3838 26.6835 14.4837 26.6835 14.6121C26.6835 14.7405 26.6982 14.8451 26.7229 14.8451C26.7426 14.8451 26.7573 14.8737 26.7573 14.907C26.7573 14.9403 26.8115 15.0449 26.8805 15.1353C26.9445 15.2304 26.9839 15.3255 26.9642 15.3446C26.9445 15.3588 26.9543 15.3683 26.979 15.3636C27.0627 15.3398 27.2548 15.4635 27.2203 15.5205C27.2006 15.5491 27.2055 15.5586 27.24 15.5443C27.2646 15.5253 27.3434 15.5301 27.4075 15.5586C27.6045 15.6395 28.1659 15.5919 28.3186 15.4825Z" fill="#68C2F3"/>
</svg>
